<svg xmlns="http://www.w3.org/2000/svg" viewBox="0 0 184 149.46"><title>ico-tw</title><path d="M212.6,62.22a75.43,75.43,0,0,1-21.68,6,37.94,37.94,0,0,0,16.6-20.87,76.23,76.23,0,0,1-24,9.16,37.76,37.76,0,0,0-65.3,25.81,38,38,0,0,0,1,8.6A107.13,107.13,0,0,1,41.42,51.44,37.77,37.77,0,0,0,53.1,101.82,37.76,37.76,0,0,1,36,97.08v.47a37.8,37.8,0,0,0,30.27,37,38.21,38.21,0,0,1-9.94,1.32,36.25,36.25,0,0,1-7.11-.7A37.77,37.77,0,0,0,84.48,161.4,75.75,75.75,0,0,1,37.6,177.53a80.88,80.88,0,0,1-9-.51,106.65,106.65,0,0,0,57.85,17c69.44,0,107.4-57.51,107.4-107.39l-.13-4.89A75.45,75.45,0,0,0,212.6,62.22Z" transform="translate(-28.6 -44.54)" style="fill:#fff"/></svg>