<svg xmlns="http://www.w3.org/2000/svg" viewBox="0 0 55 55"><title>ico-fb</title><rect width="55" height="55" style="fill:#3c5997"/><path d="M29.85,55c-.28,0-.33-.09-.33-.35q0-10.27,0-20.55c0-.37,0-.37-.36-.37H22.72c-.23,0-.32,0-.32-.3q0-3.86,0-7.71c0-.25.07-.29.3-.29h6.52c.24,0,.3-.06.3-.3,0-2.12,0-4.25,0-6.37a12,12,0,0,1,1.21-5.22A9.1,9.1,0,0,1,37,8.65,18,18,0,0,1,42,8.33c1.4,0,2.79.12,4.18.25.25,0,.35.09.34.37,0,2.27,0,4.53,0,6.8,0,.23,0,.31-.29.31-1.38,0-2.77,0-4.15,0a6.57,6.57,0,0,0-1.71.21,2.79,2.79,0,0,0-2.19,2.45A8.91,8.91,0,0,0,38,20.07c0,1.68,0,3.36,0,5,0,.23.06.28.28.28h7.57c.27,0,.31.08.28.32-.34,2.57-.68,5.15-1,7.72,0,.25-.13.26-.32.26H38.36c-.27,0-.35.06-.35.34,0,3.45,0,6.89,0,10.34S38,51.57,38,55" transform="translate(0)" style="fill:#fff"/></svg>