<svg xmlns="http://www.w3.org/2000/svg" viewBox="0 0 162 162"><title>ico-insta</title><path d="M152.23,38H84.77A46.82,46.82,0,0,0,38,84.77v67.46A46.82,46.82,0,0,0,84.77,199h67.46A46.82,46.82,0,0,0,199,152.23V84.77A46.82,46.82,0,0,0,152.23,38Zm34.19,114.23a34.23,34.23,0,0,1-34.19,34.19H84.77a34.23,34.23,0,0,1-34.19-34.19V84.77A34.23,34.23,0,0,1,84.77,50.58h67.46a34.23,34.23,0,0,1,34.19,34.19Z" transform="translate(-37.5 -37.5)" style="fill:#fff;stroke:#fff;stroke-miterlimit:10"/><path d="M118.5,75.11a43.39,43.39,0,1,0,43.39,43.39A43.43,43.43,0,0,0,118.5,75.11Zm0,74.21a30.82,30.82,0,1,1,30.82-30.82A30.86,30.86,0,0,1,118.5,149.32Z" transform="translate(-37.5 -37.5)" style="fill:#fff;stroke:#fff;stroke-miterlimit:10"/><circle cx="125.02" cy="36.98" r="6.29" style="fill:#fff;stroke:#fff;stroke-miterlimit:10"/></svg>